<svg xmlns="http://www.w3.org/2000/svg"  viewBox="0 0 100 100" width="100px" height="100px"><path fill="#f37e98" d="M50 15A35 35 0 1 0 50 85A35 35 0 1 0 50 15Z"/><path fill="#fdfcef" d="M52.121,50l10.939-10.939c0.586-0.585,0.586-1.536,0-2.121C62.768,36.646,62.384,36.5,62,36.5 s-0.768,0.146-1.061,0.439L50,47.879L39.061,36.939C38.768,36.646,38.384,36.5,38,36.5s-0.768,0.146-1.061,0.439 c-0.586,0.585-0.586,1.536,0,2.121L47.879,50L36.939,60.939c-0.586,0.585-0.586,1.536,0,2.121C37.232,63.354,37.616,63.5,38,63.5 s0.768-0.146,1.061-0.439L50,52.121l10.939,10.939C61.232,63.354,61.616,63.5,62,63.5s0.768-0.146,1.061-0.439 c0.586-0.585,0.586-1.536,0-2.121L52.121,50z"/><g><path fill="#1f212b" d="M50,86c-19.851,0-36-16.149-36-36s16.149-36,36-36s36,16.149,36,36S69.851,86,50,86z M50,16 c-18.748,0-34,15.252-34,34s15.252,34,34,34s34-15.252,34-34S68.748,16,50,16z"/><path fill="#1f212b" d="M65.5 24.227c-.087 0-.175-.022-.255-.07-.638-.377-1.299-.735-1.967-1.065-.247-.123-.349-.422-.227-.67.123-.249.425-.347.67-.227.689.341 1.374.711 2.033 1.102.237.141.316.447.176.685C65.837 24.139 65.671 24.227 65.5 24.227zM68.5 26.25c-.106 0-.213-.034-.304-.103-.322-.247-.65-.486-.983-.72-.226-.159-.281-.47-.122-.696.158-.228.47-.28.696-.123.345.241.683.49 1.017.745.22.167.261.481.094.701C68.799 26.182 68.65 26.25 68.5 26.25z"/><path fill="#1f212b" d="M50,81c-17.094,0-31-13.907-31-31s13.906-31,31-31c3.668,0,7.259,0.635,10.672,1.886 c0.26,0.095,0.393,0.382,0.298,0.642s-0.383,0.393-0.642,0.297C57.025,20.614,53.551,20,50,20c-16.542,0-30,13.458-30,30 s13.458,30,30,30s30-13.458,30-30c0-8.439-3.585-16.535-9.836-22.213c-0.205-0.186-0.22-0.502-0.034-0.707 c0.187-0.204,0.503-0.219,0.706-0.034C77.296,32.914,81,41.28,81,50C81,67.093,67.094,81,50,81z"/><path fill="#1f212b" d="M52.828,50l10.586-10.586C63.792,39.037,64,38.534,64,38s-0.208-1.037-0.586-1.414 C63.036,36.208,62.534,36,62,36s-1.036,0.208-1.414,0.586L50,47.172L39.414,36.586C39.036,36.208,38.534,36,38,36 s-1.036,0.208-1.414,0.586C36.208,36.963,36,37.466,36,38s0.208,1.037,0.586,1.414L47.172,50L36.586,60.586 C36.208,60.963,36,61.466,36,62s0.208,1.037,0.586,1.414C36.964,63.792,37.466,64,38,64s1.036-0.208,1.414-0.586L50,52.828 l10.586,10.586C60.964,63.792,61.466,64,62,64s1.036-0.208,1.414-0.586C63.792,63.037,64,62.534,64,62s-0.208-1.037-0.586-1.414 L52.828,50z M62.707,62.707c-0.378,0.378-1.036,0.378-1.414,0L50,51.414L38.707,62.707c-0.378,0.378-1.036,0.378-1.414,0 C37.104,62.518,37,62.267,37,62s0.104-0.518,0.293-0.707L48.586,50L37.293,38.707C37.104,38.518,37,38.267,37,38 s0.104-0.518,0.293-0.707c0.378-0.378,1.036-0.378,1.414,0L50,48.586l11.293-11.293c0.378-0.378,1.036-0.378,1.414,0 C62.896,37.482,63,37.733,63,38s-0.104,0.518-0.293,0.707L51.414,50l11.293,11.293C62.896,61.482,63,61.733,63,62 S62.896,62.518,62.707,62.707z"/></g></svg>